<svg width="16" height="16" viewBox="0 0 16 16" fill="none" xmlns="http://www.w3.org/2000/svg">
<path fill-rule="evenodd" clip-rule="evenodd" d="M6.58815 2.34081C8.53947 0.38948 11.7082 0.394503 13.6569 2.34315C15.6095 4.29577 15.6074 7.46372 13.6592 9.41188L9.41189 13.6592C7.46056 15.6105 4.29181 15.6055 2.34316 13.6569C0.390542 11.7042 0.392665 8.53629 2.34082 6.58814L6.58815 2.34081ZM8.00203 3.75535L3.75536 8.00202C2.58473 9.17265 2.5858 11.0711 3.75738 12.2426C4.92657 13.4118 6.82754 13.4151 7.998 12.2447L12.2447 7.99799C13.4153 6.82736 13.4142 4.92894 12.2427 3.75736C11.0735 2.58818 9.17249 2.58489 8.00203 3.75535ZM5.8787 3.05026L3.05027 5.87868L4.46448 7.2929L7.29291 4.46447L5.8787 3.05026ZM11.5356 8.70711L8.70712 11.5355L10.1213 12.9498L12.9498 10.1213L11.5356 8.70711ZM8.71365 5.87216C9.10057 5.48524 9.72809 5.48544 10.1213 5.87868C10.5119 6.26921 10.5096 6.90468 10.1279 7.28638L7.28639 10.1278C6.89947 10.5148 6.27194 10.5146 5.8787 10.1213C5.48817 9.7308 5.49048 9.09533 5.87218 8.71363L8.71365 5.87216Z" fill="#3E4056"/>
</svg>
